{
  "accessors": [
    {
      "bufferView": 0,
      "componentType": 5126,
      "count": 515,
      "max": [
        50.00004577636719,
        50.00004577636719,
        50.00004577636719
      ],
      "min": [
        -50.0,
        -50.0,
        -50.0
      ],
      "type": "VEC3"
    },
    {
      "bufferView": 1,
      "componentType": 5125,
      "count": 1202,
      "type": "SCALAR"
    },
    {
      "bufferView": 2,
      "componentType": 5126,
      "count": 515,
      "type": "VEC3"
    },
    {
      "bufferView": 3,
      "componentType": 5126,
      "count": 515,
      "type": "VEC4"
    },
    {
      "bufferView": 4,
      "componentType": 5126,
      "count": 515,
      "type": "VEC2"
    }
  ],
  "asset": {
    "version": "2.0"
  },
  "bufferViews": [
    {
      "buffer": 0,
      "byteLength": 6180,
      "target": 34962
    },
    {
      "buffer": 1,
      "byteLength": 4808,
      "target": 34963
    },
    {
      "buffer": 2,
      "byteLength": 6180,
      "target": 34962
    },
    {
      "buffer": 3,
      "byteLength": 8240,
      "target": 34962
    },
    {
      "buffer": 4,
      "byteLength": 4120,
      "target": 34962
    }
  ],
  "buffers": [
    {
      "byteLength": 6180,
      "uri": "data:application/octet-stream;base64,"
    },
    {
      "byteLength": 4808,
      "uri": "data:application/octet-stream;base64,"
    },
    {
      "byteLength": 6180,
      "uri": "data:application/octet-stream;base64,"
    },
    {
      "byteLength": 8240,
      "uri": "data:application/octet-stream;base64,"
    },
    {
      "byteLength": 4120,
      "uri": "data:application/octet-stream;base64,"
    }
  ],
  "images": [
    {
      "uri": "textures/surreal_dali_clock_in_an_alien_landscape_long_hor_highres.png"
    }
  ],
  "materials": [
    {
      "doubleSided": true,
      "name": "Surreal_Alien_Dali_Landscape",
      "pbrMetallicRoughness": {
        "baseColorTexture": {
          "index": 0
        }
      }
    }
  ],
  "meshes": [
    {
      "name": "Sphere_Surreal_Alien_Dali_Landscape_0",
      "primitives": [
        {
          "attributes": {
            "NORMAL": 2,
            "POSITION": 0,
            "TANGENT": 3,
            "TEXCOORD_0": 4
          },
          "indices": 1,
          "material": 0,
          "mode": 5
        }
      ]
    }
  ],
  "nodes": [
    {
      "mesh": 0,
      "name": "Sphere_Surreal_Alien_Dali_Landscape_0"
    },
    {
      "children": [
        0
      ],
      "name": "Sphere"
    },
    {
      "children": [
        1
      ],
      "name": "Surreal_Alien_Dali_Landscap",
      "rotation": [
        0.0,
        0.0,
        0.0,
        1.0
      ],
      "scale": [
        100.0,
        100.0,
        100.0
      ],
      "translation": [
        0.0,
        0.0,
        0.0
      ]
    },
    {
      "children": [
        2
      ],
      "name": "RootNode"
    },
    {
      "children": [
        3
      ],
      "name": "Surreal Alien Dali Landscape",
      "rotation": [
        1.1102230246251565e-16,
        0.0,
        0.0,
        1.0
      ],
      "scale": [
        0.009999999776482582,
        0.009999999776482582,
        0.009999999776482582
      ],
      "translation": [
        0.0,
        0.0,
        0.0
      ]
    }
  ],
  "samplers": [
    {
      "magFilter": 9729,
      "minFilter": 9729,
      "wrapS": 10497,
      "wrapT": 10497
    }
  ],
  "scene": 0,
  "scenes": [
    {
      "nodes": [
        4
      ]
    }
  ],
  "textures": [
    {
      "sampler": 0,
      "source": 0
    }
  ]
}
